<?xml version="1.0" encoding="UTF-8" standalone="no"?>
<svg width="107px" height="83px" viewBox="0 0 107 83" version="1.1" xmlns="http://www.w3.org/2000/svg" xmlns:xlink="http://www.w3.org/1999/xlink">
    <!-- Generator: Sketch 3.7.2 (28276) - http://www.bohemiancoding.com/sketch -->
    <title>WorldOfTraders</title>
    <desc>Created with Sketch.</desc>
    <defs></defs>
    <g id="Page-1" stroke="none" stroke-width="1" fill="none" fill-rule="evenodd">
        <g id="white" fill="#16A085">
            <g id="Logo">
                <g id="white">
                    <path d="M53.2213568,61.2260736 L36.7416013,51.4681268 L46.6467879,26.1351729 L60.7008863,34.2761881 L63.3623572,35.8183188 C63.5336749,35.9177119 63.7422794,35.933082 63.9297211,35.8572563 C63.9498762,35.8490589 71.4334366,31.7708663 71.4808009,31.5915488 L89.2021059,21.9217237 L104.860544,31.0925337 L80.8972282,45.2606668 C80.695678,45.3795287 80.5717246,45.5988084 80.5717246,45.8365322 C80.5727323,46.0742559 80.6966857,46.2935356 80.8992437,46.4123975 L96.3037287,55.5780842 L53.2213568,61.2260736 L53.2213568,61.2260736 Z M36.4574154,53.0532936 L52.4695744,62.4546548 L52.4695744,81.1815514 L36.4574154,72.0045933 L36.4574154,53.0532936 L36.4574154,53.0532936 Z M1.96612261,31.6755718 L29.5412189,15.4960086 C29.7447847,15.376122 29.8697458,15.1568423 29.8697458,14.9191185 C29.8697458,14.6813947 29.7447847,14.4610904 29.5422267,14.3422285 L13.9472767,5.17039374 L53.2828296,1.34939366 L70.0739802,11.292806 L65.3738286,27.2715336 L63.2978611,34.2464726 L61.3639866,33.1265067 L46.6084934,24.4618844 C46.4422144,24.3655652 45.7851606,24.5889436 45.7085715,24.7385457 L17.6275841,40.8320365 L1.96612261,31.6755718 L1.96612261,31.6755718 Z M1.31410758,51.5521499 L1.31410758,32.8549687 L10.8413875,38.4107377 L17.283941,42.1835782 C17.287972,42.1856275 17.296034,60.6481589 17.296034,60.6481589 L1.31410758,51.5521499 L1.31410758,51.5521499 Z M12.5303785,23.8685995 L12.5303785,5.90405855 L27.746414,15.011339 L26.0120742,16.0298625 L12.5303785,23.8685995 L12.5303785,23.8685995 Z M89.5397026,20.582478 C89.3431911,20.4677148 89.1033463,20.4636161 88.9028038,20.573256 L71.5241342,30.0555662 L71.5241342,11.2036596 C71.4939019,11.0416267 71.5543668,10.8860115 71.4939017,10.7446068 C71.4273901,10.4925376 71.208965,10.3911379 70.9628168,10.2537891 C70.949716,10.2517398 53.7594959,0.0910970444 53.7594959,0.0910970444 C53.641589,0.0214193814 53.5075581,-0.0103454355 53.3674807,0.00297529415 L11.7856504,4.04223041 C11.5024723,4.06989654 11.2696818,4.2799542 11.2082089,4.56378821 C11.1860384,4.66523069 11.2203019,4.86299229 11.2203019,4.86299229 L11.2203019,24.7078055 L0.327519143,31.0986818 C0.12496115,31.2175437 0,31.437848 0,31.6765965 C0.00503875604,31.7001639 0.00403100483,51.941525 0.00403100483,51.941525 C0.00403100483,52.1833475 0.132015408,52.4057012 0.338604406,52.5235385 L17.6336306,62.3655084 C17.7323903,62.4218653 17.8432429,62.4505561 17.9530878,62.4505561 C18.0679714,62.4505561 18.1818473,62.4198159 18.2846379,62.3583357 C18.2906844,62.3552616 35.1473389,52.8073725 35.1473389,52.8073725 L35.1473389,72.3929438 C35.1473389,72.6337416 35.2743155,72.8560953 35.4809045,72.9739326 L52.9029074,82.9583318 C53.0026748,83.0157134 53.4521318,83.0136641 53.5549224,82.9532084 C53.5599612,82.9501344 98.5086883,76.7293537 98.5086883,76.7293537 C98.8321765,76.6842681 99.073029,76.4045328 99.0760523,76.0735639 L99.2080677,56.2523181 C99.2141142,56.233874 106.693644,51.439436 106.693644,51.439436 C106.884109,51.3175001 107,51.1043684 107,50.874842 L107,31.4060832 C107,31.2247164 107.000002,30.7139564 106.495117,30.5125696 L89.5397026,20.582478 L89.5397026,20.582478 Z" id="Fill-1"></path>
                </g>
            </g>
        </g>
    </g>
</svg>
