<?xml version="1.0" encoding="UTF-8" standalone="no"?>
<svg width="108px" height="83px" viewBox="23 27 108 83" version="1.1" xmlns="http://www.w3.org/2000/svg" xmlns:xlink="http://www.w3.org/1999/xlink">
    <!-- Generator: Sketch 3.6.1 (26313) - http://www.bohemiancoding.com/sketch -->
    <title>blue</title>
    <desc>Created with Sketch.</desc>
    <defs></defs>
    <g id="Logo" stroke="none" stroke-width="1" fill="none" fill-rule="evenodd">
        <g id="blue">
            <path d="M76.812,87.7514 L60.459,78.2284 L70.288,53.5054 L84.234,61.4504 L86.875,62.9554 C87.045,63.0524 87.252,63.0674 87.438,62.9934 C87.458,62.9854 94.884,59.0054 94.931,58.8304 L112.516,49.3934 L128.054,58.3434 L104.275,72.1704 C104.075,72.2864 103.952,72.5004 103.952,72.7324 C103.953,72.9644 104.076,73.1784 104.277,73.2944 L119.563,82.2394 L76.812,87.7514 Z M60.177,79.7754 L76.066,88.9504 L76.066,107.2264 L60.177,98.2704 L60.177,79.7754 Z M25.951,58.9124 L53.314,43.1224 C53.516,43.0054 53.64,42.7914 53.64,42.5594 C53.64,42.3274 53.516,42.1124 53.315,41.9964 L37.84,33.0454 L76.873,29.3164 L93.535,39.0204 L88.871,54.6144 L86.811,61.4214 L84.892,60.3284 L70.25,51.8724 C70.085,51.7784 69.433,51.9964 69.357,52.1424 L41.492,67.8484 L25.951,58.9124 Z M25.304,78.3104 L25.304,60.0634 L34.758,65.4854 L41.151,69.1674 C41.155,69.1694 41.163,87.1874 41.163,87.1874 L25.304,78.3104 Z M36.434,51.2934 L36.434,33.7614 L51.533,42.6494 L49.812,43.6434 L36.434,51.2934 Z M112.851,48.0864 C112.656,47.9744 112.418,47.9704 112.219,48.0774 L94.974,57.3314 L94.974,38.9334 C94.9440002,38.7752684 95.004,38.6234 94.944,38.4854 C94.878,38.2394 94.6612549,38.1404418 94.417,38.0064 C94.404,38.0044 77.346,28.0884 77.346,28.0884 C77.229,28.0204 77.096,27.9894 76.957,28.0024 L35.695,31.9444 C35.414,31.9714 35.183,32.1764 35.122,32.4534 C35.1,32.5524 35.134,32.7454 35.134,32.7454 L35.134,52.1124 L24.325,58.3494 C24.124,58.4654 24,58.6804 24,58.9134 C24.005,58.9364 24.004,78.6904 24.004,78.6904 C24.004,78.9264 24.131,79.1434 24.336,79.2584 L41.498,88.8634 C41.596,88.9184 41.706,88.9464 41.815,88.9464 C41.929,88.9464 42.042,88.9164 42.144,88.8564 C42.15,88.8534 58.877,79.5354 58.877,79.5354 L58.877,98.6494 C58.877,98.8844 59.003,99.1014 59.208,99.2164 L76.496,108.9604 C76.595,109.0164 77.041,109.0144 77.143,108.9554 C77.148,108.9524 121.751,102.8814 121.751,102.8814 C122.072,102.8374 122.311,102.5644 122.314,102.2414 L122.445,82.8974 C122.451,82.8794 129.873,78.2004 129.873,78.2004 C130.062,78.0814 130.177,77.8734 130.177,77.6494 L130.177,58.6494 C130.177,58.4724 130.177002,57.9739379 129.676,57.7774 L112.851,48.0864 Z" id="Fill-1" fill="#0C0296"></path>
        </g>
    </g>
</svg>
